<svg id="Layer_1" height="512" viewBox="0 0 512 512" width="512" xmlns="http://www.w3.org/2000/svg" data-name="Layer 1"><path fill="#f7f7f7" d="m395.242 249.858a107.054 107.054 0 0 1 61.758 19.38v-86.238h-438v135.75a25.243 25.243 0 0 0 25 25.25h244.356c6.769-53 52.123-94.142 106.886-94.142zm-247.742 52.142h-70a34.5 34.5 0 0 1 0-69h70a34.5 34.5 0 0 1 0 69z"/><path fill="#f7f7f7" d="m410 306.884a14.5 14.5 0 1 0 -29 0v6.116h29z"/><path fill="#f7f7f7" d="m147.5 243h-70a24.5 24.5 0 0 0 0 49h70a24.5 24.5 0 0 0 0-49z"/><path fill="#f7f7f7" d="m353.54 418h84.067l3.239-10h-90.939z"/><path fill="#f7f7f7" d="m457 81.75a24.816 24.816 0 0 0 -25-24.75h-388a24.816 24.816 0 0 0 -25 24.75v31.25h438z"/><path fill="#f7f7f7" d="m457 123h-438v50h438zm-405.049 26h-.051l-6.3.082a4.948 4.948 0 1 1 .094-9.895l6.3.024a4.94 4.94 0 0 1 4.953 4.977 4.882 4.882 0 0 1 -4.996 4.812zm175 1h-.026l-156-.674a5.166 5.166 0 0 1 .023-10.326h.027l156 .969a5.143 5.143 0 0 1 4.974 5.189 4.888 4.888 0 0 1 -5.002 4.842z"/><path fill="#f7f7f7" d="m377 369h37v7h-37z"/><path fill="#f7f7f7" d="m395.242 259.733a97.759 97.759 0 1 0 97.758 97.759 97.87 97.87 0 0 0 -97.758-97.759zm57.284 145.273-6.572 19.671a4.914 4.914 0 0 1 -4.743 3.323h-91.14a4.936 4.936 0 0 1 -4.683-3.179l-7.371-19.647a5.213 5.213 0 0 1 -.3-2.269l7.991-85.171a5.181 5.181 0 0 1 4.983-4.734h20.309v-6.116a24.5 24.5 0 1 1 49 0v6.116h20.592a5.169 5.169 0 0 1 4.982 4.768l7.192 85.26a4.9 4.9 0 0 1 -.24 1.978z"/><path fill="#f7f7f7" d="m420 323v17.429a5 5 0 0 1 -10 0v-17.429h-29v17.429a5 5 0 0 1 -10 0v-17.429h-15.756l-7.052 75h94.15l-6.342-75zm4 58a5 5 0 0 1 -5 5h-47a5 5 0 0 1 -5-5v-17a5 5 0 0 1 5-5h47a5 5 0 0 1 5 5z"/></svg>